<?xml version="1.0" encoding="UTF-8"?>
<svg version="1.1" xmlns="http://www.w3.org/2000/svg" width="300" height="59">
<path d="M0 0 C0.9215538 0.00222061 1.8431076 0.00444122 2.79258728 0.00672913 C3.83359085 0.00680466 4.87459442 0.00688019 5.94714355 0.00695801 C7.07941879 0.01211929 8.21169403 0.01728058 9.37828064 0.02259827 C10.53106003 0.02401321 11.68383942 0.02542816 12.87155151 0.02688599 C16.57043503 0.03250446 20.26925903 0.0450601 23.96812439 0.05775452 C26.46877456 0.06276714 28.96942567 0.06733045 31.47007751 0.07142639 C37.61528027 0.0824799 43.76044808 0.099236 49.90562439 0.12025452 C51.42042786 3.14986146 51.04776633 6.29018699 51.03843689 9.61244202 C51.03939362 10.35479095 51.04035034 11.09713989 51.04133606 11.86198425 C51.04201704 13.43391505 51.04016845 15.00584865 51.03599548 16.57777405 C51.03066113 18.97871773 51.03593538 21.37947304 51.04234314 23.78041077 C51.04168205 25.30775493 51.04040024 26.83509897 51.03843689 28.36244202 C51.04046112 29.07923126 51.04248535 29.79602051 51.04457092 30.53453064 C51.02847097 33.97678245 50.74853999 36.74859212 49.90562439 40.12025452 C46.27562439 40.12025452 42.64562439 40.12025452 38.90562439 40.12025452 C38.41062439 38.14025452 38.41062439 38.14025452 37.90562439 36.12025452 C38.23562439 35.79025452 38.56562439 35.46025452 38.90562439 35.12025452 C41.21562439 35.12025452 43.52562439 35.12025452 45.90562439 35.12025452 C45.90562439 25.22025452 45.90562439 15.32025452 45.90562439 5.12025452 C31.71562439 5.12025452 17.52562439 5.12025452 2.90562439 5.12025452 C3.23562439 8.75025452 3.56562439 12.38025452 3.90562439 16.12025452 C4.56562439 16.12025452 5.22562439 16.12025452 5.90562439 16.12025452 C6.56562439 14.80025452 7.22562439 13.48025452 7.90562439 12.12025452 C8.56562439 12.12025452 9.22562439 12.12025452 9.90562439 12.12025452 C10.19437439 11.48087952 10.48312439 10.84150452 10.78062439 10.18275452 C11.90562439 8.12025452 11.90562439 8.12025452 13.90562439 7.12025452 C15.70696787 7.02371169 17.51185308 6.98950012 19.31578064 6.98744202 C20.38763611 6.98615295 21.45949158 6.98486389 22.56382751 6.98353577 C23.68724548 6.98740295 24.81066345 6.99127014 25.96812439 6.99525452 C27.09540955 6.99138733 28.2226947 6.98752014 29.38414001 6.98353577 C30.45470642 6.98482483 31.52527283 6.98611389 32.62828064 6.98744202 C34.1095343 6.98913391 34.1095343 6.98913391 35.62071228 6.99085999 C37.90562439 7.12025452 37.90562439 7.12025452 38.90562439 8.12025452 C38.94626271 9.78642567 38.94834539 11.45413547 38.90562439 13.12025452 C36.92562439 13.45025452 34.94562439 13.78025452 32.90562439 14.12025452 C32.91722595 15.15923889 32.92882751 16.19822327 32.94078064 17.26869202 C32.95017299 18.67754436 32.95927162 20.08639868 32.96812439 21.49525452 C32.9765033 22.17459045 32.9848822 22.85392639 32.99351501 23.55384827 C33.01993821 29.20841131 32.47678026 34.40869577 31.90562439 40.12025452 C16.72562439 40.12025452 1.54562439 40.12025452 -14.09437561 40.12025452 C-15.58309741 8.85709662 -15.58309741 8.85709662 -12.54750061 5.31556702 C-12.06796936 4.92111389 -11.58843811 4.52666077 -11.09437561 4.12025452 C-9.09437561 6.12025452 -9.09437561 6.12025452 -8.86732483 9.00941467 C-8.87779846 10.21388245 -8.88827209 11.41835022 -8.89906311 12.65931702 C-8.90405823 13.83188049 -8.90905334 15.00444397 -8.91419983 16.21253967 C-8.93240784 17.70833557 -8.95061584 19.20413147 -8.96937561 20.74525452 C-9.01062561 25.48900452 -9.05187561 30.23275452 -9.09437561 35.12025452 C2.45562439 35.12025452 14.00562439 35.12025452 25.90562439 35.12025452 C25.57562439 34.46025452 25.24562439 33.80025452 24.90562439 33.12025452 C24.8218978 31.59877126 24.79832412 30.07369674 24.80796814 28.54994202 C24.8111908 27.65404358 24.81441345 26.75814514 24.81773376 25.83509827 C24.83030212 24.42937561 24.83030212 24.42937561 24.84312439 22.99525452 C24.84763611 22.0503717 24.85214783 21.10548889 24.85679626 20.13197327 C24.86860082 17.79467065 24.8850668 15.4574939 24.90562439 13.12025452 C23.95687439 13.16150452 23.00812439 13.20275452 22.03062439 13.24525452 C18.90562439 13.12025452 18.90562439 13.12025452 16.90562439 11.12025452 C14.92562439 13.43025452 12.94562439 15.74025452 10.90562439 18.12025452 C12.83089612 21.97079798 14.99291665 24.88934367 17.66343689 28.21791077 C18.90562439 30.12025452 18.90562439 30.12025452 18.90562439 33.12025452 C16.64390564 33.40150452 16.64390564 33.40150452 13.90562439 33.12025452 C11.88609314 31.15150452 11.88609314 31.15150452 10.09312439 28.62025452 C9.48855408 27.78494202 8.88398376 26.94962952 8.26109314 26.08900452 C7.81378845 25.43931702 7.36648376 24.78962952 6.90562439 24.12025452 C5.91562439 24.45025452 4.92562439 24.78025452 3.90562439 25.12025452 C3.57562439 27.43025452 3.24562439 29.74025452 2.90562439 32.12025452 C1.24947782 32.50244219 -0.41894585 32.83420553 -2.09437561 33.12025452 C-4.00287509 31.21175504 -3.22497194 27.80546677 -3.22718811 25.27650452 C-3.22814484 24.59221375 -3.22910156 23.90792297 -3.23008728 23.20289612 C-3.23076891 21.75363575 -3.22891584 20.30437233 -3.2247467 18.8551178 C-3.21939813 16.62962524 -3.22469221 14.40433451 -3.23109436 12.17884827 C-3.23043358 10.7738999 -3.22915241 9.36895166 -3.22718811 7.96400452 C-3.22549622 6.03331116 -3.22549622 6.03331116 -3.22377014 4.06361389 C-3.05283341 0.17528709 -3.05283341 0.17528709 0 0 Z " fill="#0E47A8" transform="translate(26.094375610351563,11.879745483398438)"/>
<path d="M0 0 C2 2 2 2 2.22705078 4.88916016 C2.21657715 6.09362793 2.20610352 7.2980957 2.1953125 8.5390625 C2.19031738 9.71162598 2.18532227 10.88418945 2.18017578 12.09228516 C2.16196777 13.58808105 2.14375977 15.08387695 2.125 16.625 C2.08375 21.36875 2.0425 26.1125 2 31 C13.55 31 25.1 31 37 31 C36.505 30.01 36.505 30.01 36 29 C35.91627341 27.47851674 35.89269973 25.95344222 35.90234375 24.4296875 C35.90556641 23.53378906 35.90878906 22.63789062 35.91210938 21.71484375 C35.92467773 20.30912109 35.92467773 20.30912109 35.9375 18.875 C35.94201172 17.93011719 35.94652344 16.98523438 35.95117188 16.01171875 C35.96297643 13.67441613 35.97944241 11.33723939 36 9 C34.5459375 9.0309375 34.5459375 9.0309375 33.0625 9.0625 C30 9 30 9 29 8 C28.95936168 6.33382885 28.957279 4.66611905 29 3 C32.31248187 2.97111854 35.62493167 2.95324201 38.9375 2.9375 C40.35579102 2.92493164 40.35579102 2.92493164 41.80273438 2.91210938 C43.15141602 2.90727539 43.15141602 2.90727539 44.52734375 2.90234375 C45.77632446 2.89448853 45.77632446 2.89448853 47.05053711 2.88647461 C49 3 49 3 50 4 C50.04063832 5.66617115 50.042721 7.33388095 50 9 C48.02 9.33 46.04 9.66 44 10 C44.01160156 11.03898437 44.02320313 12.07796875 44.03515625 13.1484375 C44.0445486 14.55728984 44.05364723 15.96614416 44.0625 17.375 C44.07087891 18.05433594 44.07925781 18.73367187 44.08789062 19.43359375 C44.11431382 25.0881568 43.57115587 30.28844125 43 36 C27.82 36 12.64 36 -3 36 C-4.4887218 4.73684211 -4.4887218 4.73684211 -1.453125 1.1953125 C-0.97359375 0.80085938 -0.4940625 0.40640625 0 0 Z " fill="#12721E" transform="translate(15,16)"/>
<path d="M0 0 C1.51400391 0.01740234 1.51400391 0.01740234 3.05859375 0.03515625 C4.07050781 0.04417969 5.08242187 0.05320312 6.125 0.0625 C7.29869141 0.07990234 7.29869141 0.07990234 8.49609375 0.09765625 C8.30144531 0.690625 8.10679687 1.28359375 7.90625 1.89453125 C7.28373447 5.23832895 8.86763656 7.2315716 10.49609375 10.09765625 C12.83668012 7.96985046 14.20309681 5.98203404 15.49609375 3.09765625 C14.83609375 2.43765625 14.17609375 1.77765625 13.49609375 1.09765625 C14.49609375 0.09765625 14.49609375 0.09765625 17.27172852 -0.01586914 C18.48143311 -0.01063232 19.6911377 -0.00539551 20.9375 0 C22.24267578 0.00322266 23.54785156 0.00644531 24.89257812 0.00976562 C26.28125065 0.01812224 27.66992252 0.0265872 29.05859375 0.03515625 C30.45117031 0.04016959 31.84374856 0.04473278 33.23632812 0.04882812 C36.65629245 0.06066191 40.07617219 0.07714745 43.49609375 0.09765625 C43.99109375 3.56265625 43.99109375 3.56265625 44.49609375 7.09765625 C42.02109375 6.10765625 42.02109375 6.10765625 39.49609375 5.09765625 C39.49609375 4.43765625 39.49609375 3.77765625 39.49609375 3.09765625 C37.18609375 3.09765625 34.87609375 3.09765625 32.49609375 3.09765625 C32.16609375 5.73765625 31.83609375 8.37765625 31.49609375 11.09765625 C33.4714612 10.74978917 33.4714612 10.74978917 35.49609375 10.09765625 C35.82609375 9.43765625 36.15609375 8.77765625 36.49609375 8.09765625 C37.48609375 8.09765625 38.47609375 8.09765625 39.49609375 8.09765625 C39.49609375 11.06765625 39.49609375 14.03765625 39.49609375 17.09765625 C38.17609375 16.43765625 36.85609375 15.77765625 35.49609375 15.09765625 C34.17609375 14.76765625 32.85609375 14.43765625 31.49609375 14.09765625 C31.99109375 18.55265625 31.99109375 18.55265625 32.49609375 23.09765625 C36.37374154 23.45836767 37.99622575 23.46965104 41.18359375 21.09765625 C41.94671875 20.43765625 42.70984375 19.77765625 43.49609375 19.09765625 C44.48609375 19.09765625 45.47609375 19.09765625 46.49609375 19.09765625 C45.68359375 22.53515625 45.68359375 22.53515625 44.49609375 26.09765625 C41.56939684 27.07322189 40.05548054 27.15829035 37.046875 26.9765625 C36.19931641 26.92822266 35.35175781 26.87988281 34.47851562 26.83007812 C33.59744141 26.77400391 32.71636719 26.71792969 31.80859375 26.66015625 C30.91591797 26.60794922 30.02324219 26.55574219 29.10351562 26.50195312 C26.90067815 26.37237445 24.69830502 26.23741379 22.49609375 26.09765625 C22.49609375 25.43765625 22.49609375 24.77765625 22.49609375 24.09765625 C23.48609375 24.09765625 24.47609375 24.09765625 25.49609375 24.09765625 C25.16609375 17.16765625 24.83609375 10.23765625 24.49609375 3.09765625 C22.84609375 3.09765625 21.19609375 3.09765625 19.49609375 3.09765625 C19.24859375 3.79890625 19.00109375 4.50015625 18.74609375 5.22265625 C17.49609375 8.09765625 17.49609375 8.09765625 15.37109375 10.84765625 C12.93026216 15.078431 13.11493769 18.3332055 13.49609375 23.09765625 C14.15609375 23.42765625 14.81609375 23.75765625 15.49609375 24.09765625 C15.49609375 24.75765625 15.49609375 25.41765625 15.49609375 26.09765625 C11.53609375 26.09765625 7.57609375 26.09765625 3.49609375 26.09765625 C3.49609375 25.43765625 3.49609375 24.77765625 3.49609375 24.09765625 C4.15609375 23.76765625 4.81609375 23.43765625 5.49609375 23.09765625 C6.26980543 15.10263558 4.25242828 10.50887116 -0.50390625 4.09765625 C-1.47782739 3.07224043 -2.46879841 2.06127016 -3.50390625 1.09765625 C-2.50390625 0.09765625 -2.50390625 0.09765625 0 0 Z " fill="#204790" transform="translate(136.50390625,16.90234375)"/>
<path d="M0 0 C0.66 0.33 1.32 0.66 2 1 C2 1.99 2 2.98 2 4 C1.34 4 0.68 4 0 4 C0.33 6.31 0.66 8.62 1 11 C3.97 11.33 6.94 11.66 10 12 C10 9.36 10 6.72 10 4 C9.34 4 8.68 4 8 4 C8 2.68 8 1.36 8 0 C9.45823212 -0.0270043 10.91660675 -0.04639787 12.375 -0.0625 C13.18710937 -0.07410156 13.99921875 -0.08570313 14.8359375 -0.09765625 C17 0 17 0 19 1 C19 1.99 19 2.98 19 4 C18.34 4 17.68 4 17 4 C17.33 10.6 17.66 17.2 18 24 C18.66 24.33 19.32 24.66 20 25 C20 25.66 20 26.32 20 27 C17.47524538 28.26237731 15.68799534 28.09856404 12.875 28.0625 C11.96492188 28.05347656 11.05484375 28.04445313 10.1171875 28.03515625 C9.06917969 28.01775391 9.06917969 28.01775391 8 28 C8 26.68 8 25.36 8 24 C8.66 24 9.32 24 10 24 C10 21.03 10 18.06 10 15 C8.700625 15.144375 7.40125 15.28875 6.0625 15.4375 C5.33160156 15.51871094 4.60070312 15.59992187 3.84765625 15.68359375 C1.98859771 15.81886614 1.98859771 15.81886614 1 17 C0.63239269 19.32817964 0.29758419 21.6618385 0 24 C0.66 24 1.32 24 2 24 C2 25.32 2 26.64 2 28 C-1.63 28 -5.26 28 -9 28 C-9.33 27.01 -9.66 26.02 -10 25 C-9.34 24.67 -8.68 24.34 -8 24 C-7.91289711 20.89601022 -7.85957691 17.79233452 -7.8125 14.6875 C-7.78736328 13.80642578 -7.76222656 12.92535156 -7.73632812 12.01757812 C-7.72666016 11.17001953 -7.71699219 10.32246094 -7.70703125 9.44921875 C-7.6913208 8.66893311 -7.67561035 7.88864746 -7.65942383 7.0847168 C-8.08152696 4.50096147 -9.01489942 3.63707833 -11 2 C-6.94641576 -0.70238949 -4.81689896 -0.22937614 0 0 Z " fill="#108815" transform="translate(270,16)"/>
<path d="M0 0 C6.27 0 12.54 0 19 0 C21.08954032 4.17908064 21.16552619 4.80410573 20 9 C17.53199953 7.84826645 15.95216435 6.95216435 14 5 C12.01178687 4.60235737 10.01055661 4.26224651 8 4 C8 6.64 8 9.28 8 12 C8.78375 11.525625 9.5675 11.05125 10.375 10.5625 C11.88948678 9.66101977 13.4235897 8.78820515 15 8 C16.60725635 11.21451269 16.05748185 14.43612536 16 18 C13.61435923 17.42415568 11.33317216 16.77772405 9 16 C8.67 18.64 8.34 21.28 8 24 C11.3324787 24.33417929 11.3324787 24.33417929 15 24 C16.37195574 22.70644173 17.71182656 21.37701298 19 20 C21.25 20.25 21.25 20.25 23 21 C22.39816251 23.02045442 21.72693904 25.02111039 21 27 C18.72926921 28.1353654 17.45716721 28.12892412 14.9375 28.1328125 C14.14085937 28.13410156 13.34421875 28.13539062 12.5234375 28.13671875 C11.69070312 28.13285156 10.85796875 28.12898438 10 28.125 C8.75089844 28.13080078 8.75089844 28.13080078 7.4765625 28.13671875 C6.67992187 28.13542969 5.88328125 28.13414063 5.0625 28.1328125 C4.33160156 28.13168457 3.60070312 28.13055664 2.84765625 28.12939453 C1 28 1 28 -1 27 C-1 26.01 -1 25.02 -1 24 C-0.34 23.67 0.32 23.34 1 23 C1 17.06 1 11.12 1 5 C0.34 4.67 -0.32 4.34 -1 4 C-0.67 2.68 -0.34 1.36 0 0 Z " fill="#138517" transform="translate(211,16)"/>
<path d="M0 0 C4.02072567 4.69863872 4.76151453 8.57522683 4.34375 14.6328125 C2.5279166 18.74233019 0.17695805 21.29955542 -3.65625 23.6328125 C-8.41036313 25.05086536 -12.44268005 25.09330647 -17.03125 23.1328125 C-19.98667274 21.41029066 -20.79606816 20.41249297 -22.71875 17.3828125 C-24.19991048 11.45817058 -23.75020749 7.60193599 -20.78125 2.2578125 C-18.5988902 -0.43804372 -16.81750184 -1.95733391 -13.53125 -3.1171875 C-8.77274619 -3.53097044 -3.8002439 -3.13699379 0 0 Z M-14.34375 1.6328125 C-17.12466977 5.2404922 -18.05821775 8.1537433 -17.65625 12.6328125 C-16.83299836 15.74287425 -15.77591701 18.19399108 -13.65625 20.6328125 C-10.22334633 22.12364041 -10.22334633 22.12364041 -6.65625 21.6328125 C-3.71052395 19.46227751 -2.81564059 18.11098427 -1.65625 14.6328125 C-1.20182439 8.4980668 -2.35051355 5.54004542 -6.09375 0.8203125 C-9.27284825 -1.59580217 -11.4316196 -0.53435431 -14.34375 1.6328125 Z " fill="#174199" transform="translate(129.65625,19.3671875)"/>
<path d="M0 0 C3.3 0 6.6 0 10 0 C9.67 0.99 9.34 1.98 9 3 C8.96045766 5.33299825 8.95598268 7.66708189 9 10 C10.00893131 8.90398831 11.00688225 7.79786082 12 6.6875 C12.556875 6.07261719 13.11375 5.45773438 13.6875 4.82421875 C15.29201498 2.96868665 15.29201498 2.96868665 15 0 C17.64 0 20.28 0 23 0 C21.73205551 3.80383347 20.35546712 4.00269814 17 6 C14.97891823 7.7484395 14.97891823 7.7484395 14 10 C14.71928259 13.41659232 16.41115683 15.5878156 18.625 18.1875 C21 21 21 21 21 23 C22.32 23.33 23.64 23.66 25 24 C25 24.66 25 25.32 25 26 C21.37 26 17.74 26 14 26 C13.67 24.35 13.34 22.7 13 21 C11.7295036 18.95950578 10.40568804 16.94982535 9 15 C8.67 17.97 8.34 20.94 8 24 C8.66 24 9.32 24 10 24 C10 24.66 10 25.32 10 26 C6.7 26 3.4 26 0 26 C0 25.34 0 24.68 0 24 C0.66 24 1.32 24 2 24 C2 16.74 2 9.48 2 2 C1.34 2 0.68 2 0 2 C0 1.34 0 0.68 0 0 Z " fill="#154DBB" transform="translate(82,17)"/>
<path d="M0 0 C1.60725635 3.21451269 1.05748185 6.43612536 1 10 C-0.75 9.8125 -0.75 9.8125 -3 9 C-3.5775 8.154375 -4.155 7.30875 -4.75 6.4375 C-6.68680915 3.83618031 -6.68680915 3.83618031 -9.03125 3.671875 C-11.02378804 3.68590696 -13.01429543 3.83452462 -15 4 C-16.09506492 7.28519475 -16.09960608 9.73663415 -16.0625 13.1875 C-16.05347656 14.27417969 -16.04445312 15.36085938 -16.03515625 16.48046875 C-16.02355469 17.31191406 -16.01195312 18.14335938 -16 19 C-15.01 19.33 -14.02 19.66 -13 20 C-13 20.66 -13 21.32 -13 22 C-8.24636504 22.33164895 -5.95604207 21.56608134 -2 19 C-1.01 19 -0.02 19 1 19 C1 20.32 1 21.64 1 23 C-7.25186441 28.52034448 -7.25186441 28.52034448 -12.25 28.0625 C-17.42959087 26.59494925 -19.82200825 24.74667742 -22.8125 20.3125 C-24.56786065 15.41596766 -25.2882973 10.79926326 -23.05078125 5.9375 C-17.59131018 -2.32920699 -8.99275404 -2.19335464 0 0 Z " fill="#1E7C1E" transform="translate(258,17)"/>
<path d="M0 0 C1.00023193 0.00523682 2.00046387 0.01047363 3.03100586 0.01586914 C4.1105957 0.0190918 5.19018555 0.02231445 6.30249023 0.02563477 C8.00695312 0.03820313 8.00695312 0.03820313 9.74584961 0.05102539 C11.45611328 0.05779297 11.45611328 0.05779297 13.20092773 0.06469727 C16.02845312 0.07652792 18.85587601 0.09301129 21.68334961 0.11352539 C22.01334961 2.75352539 22.34334961 5.39352539 22.68334961 8.11352539 C21.36334961 7.78352539 20.04334961 7.45352539 18.68334961 7.11352539 C18.68334961 6.45352539 18.68334961 5.79352539 18.68334961 5.11352539 C17.03334961 5.11352539 15.38334961 5.11352539 13.68334961 5.11352539 C13.43536685 8.07139203 13.20923107 11.02813837 12.99584961 13.98852539 C12.92301758 14.8302832 12.85018555 15.67204102 12.77514648 16.53930664 C12.72036133 17.3449707 12.66557617 18.15063477 12.60913086 18.98071289 C12.55152588 19.72434082 12.4939209 20.46796875 12.43457031 21.23413086 C12.51666748 21.85433105 12.59876465 22.47453125 12.68334961 23.11352539 C13.67334961 23.77352539 14.66334961 24.43352539 15.68334961 25.11352539 C15.35334961 26.10352539 15.02334961 27.09352539 14.68334961 28.11352539 C13.05844007 28.14050728 11.43340328 28.15991296 9.80834961 28.17602539 C8.90342773 28.18762695 7.99850586 28.19922852 7.06616211 28.21118164 C4.68334961 28.11352539 4.68334961 28.11352539 2.68334961 27.11352539 C3.01334961 26.12352539 3.34334961 25.13352539 3.68334961 24.11352539 C4.34334961 24.11352539 5.00334961 24.11352539 5.68334961 24.11352539 C5.68334961 17.51352539 5.68334961 10.91352539 5.68334961 4.11352539 C3.70334961 4.44352539 1.72334961 4.77352539 -0.31665039 5.11352539 C-0.64665039 6.10352539 -0.97665039 7.09352539 -1.31665039 8.11352539 C-2.30665039 8.11352539 -3.29665039 8.11352539 -4.31665039 8.11352539 C-3.30463049 0.16194048 -3.30463049 0.16194048 0 0 Z " fill="#198326" transform="translate(186.316650390625,15.886474609375)"/>
<path d="M0 0 C1.98 0 3.96 0 6 0 C6 3.3 6 6.6 6 10 C7.32 9.67 8.64 9.34 10 9 C10.33 8.34 10.66 7.68 11 7 C11.99 7 12.98 7 14 7 C14 9.97 14 12.94 14 16 C12.68 15.34 11.36 14.68 10 14 C8.68 13.67 7.36 13.34 6 13 C6.33 15.97 6.66 18.94 7 22 C10.87764779 22.36071142 12.500132 22.37199479 15.6875 20 C16.450625 19.34 17.21375 18.68 18 18 C18.99 18 19.98 18 21 18 C20.1875 21.4375 20.1875 21.4375 19 25 C16.07330309 25.97556564 14.55938679 26.0606341 11.55078125 25.87890625 C10.70322266 25.83056641 9.85566406 25.78222656 8.98242188 25.73242188 C8.10134766 25.67634766 7.22027344 25.62027344 6.3125 25.5625 C5.41982422 25.51029297 4.52714844 25.45808594 3.60742188 25.40429688 C1.4045844 25.2747182 -0.79778873 25.13975754 -3 25 C-3 24.34 -3 23.68 -3 23 C-2.01 23 -1.02 23 0 23 C0 15.41 0 7.82 0 0 Z " fill="#124DB5" transform="translate(162,18)"/>
<path d="M0 0 C1.03125 0.00322266 2.0625 0.00644531 3.125 0.00976562 C4.74535156 0.02233398 4.74535156 0.02233398 6.3984375 0.03515625 C8.03039062 0.04192383 8.03039062 0.04192383 9.6953125 0.04882812 C12.38807539 0.06063849 15.08072938 0.07710847 17.7734375 0.09765625 C17.7734375 0.42765625 17.7734375 0.75765625 17.7734375 1.09765625 C7.3784375 1.59265625 7.3784375 1.59265625 -3.2265625 2.09765625 C-2.8965625 4.73765625 -2.5665625 7.37765625 -2.2265625 10.09765625 C-2.5565625 10.75765625 -2.8865625 11.41765625 -3.2265625 12.09765625 C-3.8865625 12.09765625 -4.5465625 12.09765625 -5.2265625 12.09765625 C-4.5665625 13.41765625 -3.9065625 14.73765625 -3.2265625 16.09765625 C-0.5865625 15.76765625 2.0534375 15.43765625 4.7734375 15.09765625 C5.11375 16.08765625 5.11375 16.08765625 5.4609375 17.09765625 C7.17915108 21.02500158 9.44118357 24.51025803 11.7734375 28.09765625 C11.15855469 27.78828125 10.54367188 27.47890625 9.91015625 27.16015625 C8.4802192 26.44910894 7.03833954 25.76161147 5.5859375 25.09765625 C3.7734375 24.09765625 3.7734375 24.09765625 2.7734375 22.09765625 C1.7834375 22.42765625 0.7934375 22.75765625 -0.2265625 23.09765625 C-0.5565625 25.40765625 -0.8865625 27.71765625 -1.2265625 30.09765625 C-2.88270907 30.47984392 -4.55113274 30.81160727 -6.2265625 31.09765625 C-7.2265625 30.09765625 -7.2265625 30.09765625 -7.34008789 27.32202148 C-7.33485107 26.11231689 -7.32961426 24.9026123 -7.32421875 23.65625 C-7.32099609 22.35107422 -7.31777344 21.04589844 -7.31445312 19.70117188 C-7.30609651 18.31249935 -7.29763155 16.92382748 -7.2890625 15.53515625 C-7.28404916 14.14257969 -7.27948597 12.75000144 -7.27539062 11.35742188 C-7.26355684 7.93745755 -7.2470713 4.51757781 -7.2265625 1.09765625 C-4.66933021 -0.1809599 -2.85919148 -0.01570984 0 0 Z " fill="#1453C5" transform="translate(30.2265625,13.90234375)"/>
<path d="M0 0 C2 2 2 2 2.22705078 4.70556641 C2.21657715 5.82624512 2.20610352 6.94692383 2.1953125 8.1015625 C2.18886719 9.31328125 2.18242187 10.525 2.17578125 11.7734375 C2.15902344 13.04445313 2.14226563 14.31546875 2.125 15.625 C2.11597656 16.90375 2.10695313 18.1825 2.09765625 19.5 C2.07402303 22.66685167 2.04107629 25.83333424 2 29 C1.67 29 1.34 29 1 29 C0.67 27.02 0.34 25.04 0 23 C-0.33 23 -0.66 23 -1 23 C-1 26.63 -1 30.26 -1 34 C17.81 34.495 17.81 34.495 37 35 C37 35.33 37 35.66 37 36 C23.8 36 10.6 36 -3 36 C-4.78378378 5.08108108 -4.78378378 5.08108108 -1.453125 1.1953125 C-0.97359375 0.80085938 -0.4940625 0.40640625 0 0 Z " fill="#1D7323" transform="translate(15,16)"/>
<path d="M0 0 C0.66 0.33 1.32 0.66 2 1 C2 1.99 2 2.98 2 4 C1.34 4 0.68 4 0 4 C0.01160156 4.7734375 0.02320313 5.546875 0.03515625 6.34375 C0.08709845 12.33936364 -0.08815844 18.07302983 -1 24 C-1.99 24 -2.98 24 -4 24 C-4.33 21.03 -4.66 18.06 -5 15 C-5.66 15 -6.32 15 -7 15 C-7.03738281 14.31292969 -7.07476562 13.62585937 -7.11328125 12.91796875 C-7.17902344 12.01691406 -7.24476563 11.11585937 -7.3125 10.1875 C-7.37050781 9.29417969 -7.42851562 8.40085937 -7.48828125 7.48046875 C-8.06313581 4.69396 -8.8206856 3.75864246 -11 2 C-6.94641576 -0.70238949 -4.81689896 -0.22937614 0 0 Z " fill="#217521" transform="translate(270,16)"/>
<path d="M0 0 C1.65 0 3.3 0 5 0 C6.0394775 3.1184325 6.11494838 5.27475586 6.09765625 8.54296875 C6.09443359 9.61611328 6.09121094 10.68925781 6.08789062 11.79492188 C6.07951172 12.91447266 6.07113281 14.03402344 6.0625 15.1875 C6.05798828 16.31865234 6.05347656 17.44980469 6.04882812 18.61523438 C6.03703498 21.41020927 6.0205765 24.2050782 6 27 C4.35 27.33 2.7 27.66 1 28 C0.18101378 24.42649959 -0.11811958 21.14340521 -0.09765625 17.48046875 C-0.09443359 16.45888672 -0.09121094 15.43730469 -0.08789062 14.38476562 C-0.07951172 13.32966797 -0.07113281 12.27457031 -0.0625 11.1875 C-0.05798828 10.11306641 -0.05347656 9.03863281 -0.04882812 7.93164062 C-0.03707729 5.28770317 -0.02064787 2.64388048 0 0 Z " fill="#0D8D15" transform="translate(51,22)"/>
<path d="M0 0 C1.51400391 0.01740234 1.51400391 0.01740234 3.05859375 0.03515625 C4.07050781 0.04417969 5.08242187 0.05320312 6.125 0.0625 C7.29869141 0.07990234 7.29869141 0.07990234 8.49609375 0.09765625 C8.29113281 0.68546875 8.08617187 1.27328125 7.875 1.87890625 C7.40517711 4.6300341 7.93880484 5.30262682 9.43359375 7.59765625 C12.35296768 12.89466462 11.84941794 18.20891977 11.49609375 24.09765625 C10.17609375 24.09765625 8.85609375 24.09765625 7.49609375 24.09765625 C7.48191406 23.37320313 7.46773437 22.64875 7.453125 21.90234375 C7.1157369 15.06339578 6.39185332 11.88214856 1.49609375 7.09765625 C0.54624436 5.98306333 -0.39166385 4.85816615 -1.31640625 3.72265625 C-2.03828125 2.85640625 -2.76015625 1.99015625 -3.50390625 1.09765625 C-2.50390625 0.09765625 -2.50390625 0.09765625 0 0 Z " fill="#1451C1" transform="translate(136.50390625,16.90234375)"/>
<path d="M0 0 C1.93166016 0.01740234 1.93166016 0.01740234 3.90234375 0.03515625 C5.19269531 0.04417969 6.48304688 0.05320312 7.8125 0.0625 C8.81152344 0.07410156 9.81054688 0.08570313 10.83984375 0.09765625 C11.16984375 1.08765625 11.49984375 2.07765625 11.83984375 3.09765625 C11.17984375 3.75765625 10.51984375 4.41765625 9.83984375 5.09765625 C9.56329987 7.03446761 9.56329987 7.03446761 9.64453125 9.23046875 C9.65097656 10.03613281 9.65742188 10.84179688 9.6640625 11.671875 C9.68082031 12.51363281 9.69757813 13.35539062 9.71484375 14.22265625 C9.72837891 15.49689453 9.72837891 15.49689453 9.7421875 16.796875 C9.76578728 18.89725509 9.80165892 20.99749069 9.83984375 23.09765625 C8.84984375 23.42765625 7.85984375 23.75765625 6.83984375 24.09765625 C6.77925781 23.14503906 6.71867188 22.19242188 6.65625 21.2109375 C6.53056641 19.32955078 6.53056641 19.32955078 6.40234375 17.41015625 C6.32113281 16.16878906 6.23992187 14.92742188 6.15625 13.6484375 C5.89493058 10.71585288 5.49185996 7.96324008 4.83984375 5.09765625 C2.85984375 5.09765625 0.87984375 5.09765625 -1.16015625 5.09765625 C-1.49015625 6.08765625 -1.82015625 7.07765625 -2.16015625 8.09765625 C-3.15015625 8.09765625 -4.14015625 8.09765625 -5.16015625 8.09765625 C-4.1458512 0.12811654 -4.1458512 0.12811654 0 0 Z " fill="#0B8E11" transform="translate(187.16015625,15.90234375)"/>
<path d="M0 0 C3.53508103 0.29459009 4.76203444 0.74881413 7.25 3.375 C10.09228552 7.63842828 10.34851846 10.94648231 10 16 C8.875 18.875 8.875 18.875 7 21 C3.8125 21.8125 3.8125 21.8125 1 22 C1.495 20.7315625 1.495 20.7315625 2 19.4375 C3.0900941 15.69030153 3.35302548 12.88328027 3 9 C2.05273046 7.30280873 1.05771739 5.63064764 0 4 C0 2.68 0 1.36 0 0 Z " fill="#1242A3" transform="translate(124,18)"/>
<path d="M0 0 C3 2 3 2 3.51171875 4.1640625 C3.56972656 4.97617187 3.62773437 5.78828125 3.6875 6.625 C3.75324219 7.44226562 3.81898437 8.25953125 3.88671875 9.1015625 C3.92410156 9.72804688 3.96148438 10.35453125 4 11 C4.62648438 10.98839844 5.25296875 10.97679687 5.8984375 10.96484375 C6.71570313 10.95582031 7.53296875 10.94679688 8.375 10.9375 C9.18710937 10.92589844 9.99921875 10.91429687 10.8359375 10.90234375 C13 11 13 11 15 12 C18.35336366 12.23215595 21.69988023 12.39440527 25.05859375 12.51757812 C28.90767194 12.70542448 31.64413102 13.13971166 35 15 C30.17619198 15.0246519 25.35242033 15.04283693 20.52856445 15.05493164 C18.88630536 15.05997174 17.24405077 15.06680378 15.60180664 15.07543945 C13.24624521 15.08751926 10.89074291 15.09323139 8.53515625 15.09765625 C7.79660904 15.10281754 7.05806183 15.10797882 6.2971344 15.11329651 C4.53101912 15.1134925 2.76502854 15.06194719 1 15 C0 14 0 14 -0.09765625 10.83984375 C-0.08025391 8.90818359 -0.08025391 8.90818359 -0.0625 6.9375 C-0.05347656 5.64714844 -0.04445313 4.35679688 -0.03515625 3.02734375 C-0.02355469 2.02832031 -0.01195312 1.02929688 0 0 Z " fill="#0D7B18" transform="translate(13,36)"/>
<path d="M0 0 C1.60725635 3.21451269 1.05748185 6.43612536 1 10 C-0.75 9.8125 -0.75 9.8125 -3 9 C-3.5775 8.154375 -4.155 7.30875 -4.75 6.4375 C-6.68680915 3.83618031 -6.68680915 3.83618031 -9.03125 3.671875 C-11.02378804 3.68590696 -13.01429543 3.83452462 -15 4 C-15.33 4.99 -15.66 5.98 -16 7 C-18.475 6.01 -18.475 6.01 -21 5 C-20.02703346 2.34645489 -19.34207577 1.20122104 -16.875 -0.25 C-11.34340387 -1.69302508 -5.53141816 -1.34912638 0 0 Z " fill="#287924" transform="translate(258,17)"/>
<path d="M0 0 C1.22589844 0.15275391 1.22589844 0.15275391 2.4765625 0.30859375 C3.41628906 0.43427734 3.41628906 0.43427734 4.375 0.5625 C4.375 1.2225 4.375 1.8825 4.375 2.5625 C5.035 2.5625 5.695 2.5625 6.375 2.5625 C5.715 3.8825 5.055 5.2025 4.375 6.5625 C4.375 5.5725 4.375 4.5825 4.375 3.5625 C3.075625 3.706875 1.77625 3.85125 0.4375 4 C-0.29339844 4.08121094 -1.02429688 4.16242187 -1.77734375 4.24609375 C-3.63640229 4.38136614 -3.63640229 4.38136614 -4.625 5.5625 C-4.99260731 7.89067964 -5.32741581 10.2243385 -5.625 12.5625 C-4.965 12.5625 -4.305 12.5625 -3.625 12.5625 C-3.625 13.8825 -3.625 15.2025 -3.625 16.5625 C-7.255 16.5625 -10.885 16.5625 -14.625 16.5625 C-14.955 15.5725 -15.285 14.5825 -15.625 13.5625 C-14.965 13.2325 -14.305 12.9025 -13.625 12.5625 C-13.15848793 10.43673218 -13.15848793 10.43673218 -13 8 C-12.92523438 7.17371094 -12.85046875 6.34742188 -12.7734375 5.49609375 C-12.72445313 4.85800781 -12.67546875 4.21992188 -12.625 3.5625 C-11.965 3.5625 -11.305 3.5625 -10.625 3.5625 C-10.295 6.5325 -9.965 9.5025 -9.625 12.5625 C-8.635 12.5625 -7.645 12.5625 -6.625 12.5625 C-6.625 8.6025 -6.625 4.6425 -6.625 0.5625 C-4.10446405 -0.69776798 -2.7707902 -0.35624445 0 0 Z " fill="#287F27" transform="translate(275.625,27.4375)"/>
<path d="M0 0 C6.27 0 12.54 0 19 0 C21.08954032 4.17908064 21.16552619 4.80410573 20 9 C17.53199953 7.84826645 15.95216435 6.95216435 14 5 C12.01178687 4.60235737 10.01055661 4.26224651 8 4 C8 6.64 8 9.28 8 12 C7.67 12 7.34 12 7 12 C7 9.36 7 6.72 7 4 C4.36 4 1.72 4 -1 4 C-0.67 2.68 -0.34 1.36 0 0 Z " fill="#2D7B2D" transform="translate(211,16)"/>
<path d="M0 0 C0.99 0 1.98 0 3 0 C3.3403125 0.99 3.3403125 0.99 3.6875 2 C5.40571358 5.92734533 7.66774607 9.41260178 10 13 C7.33333333 11.66666667 4.66666667 10.33333333 2 9 C2 7.68 2 6.36 2 5 C0.35 5.33 -1.3 5.66 -3 6 C-3.33 8.31 -3.66 10.62 -4 13 C-4.99 12.67 -5.98 12.34 -7 12 C-7 8.37 -7 4.74 -7 1 C-5.5459375 1.0309375 -5.5459375 1.0309375 -4.0625 1.0625 C-1.12534105 1.35618499 -1.12534105 1.35618499 0 0 Z " fill="#1558DC" transform="translate(32,29)"/>
<path d="M0 0 C2.18763541 3.28145312 2.18634597 3.99978737 2 7.75 C1.89362942 12.28404592 2.51528443 15.73144273 4 20 C0.48144841 18.59257936 -0.38612834 17.33533477 -2 14 C-2.99 13.67 -3.98 13.34 -5 13 C-5.05422947 11.5629191 -5.09289723 10.12524538 -5.125 8.6875 C-5.14820313 7.88699219 -5.17140625 7.08648437 -5.1953125 6.26171875 C-5 4 -5 4 -3 1 C-2.01 0.67 -1.02 0.34 0 0 Z " fill="#148818" transform="translate(239,21)"/>
<path d="M0 0 C0.33 2.64 0.66 5.28 1 8 C-0.32 7.67 -1.64 7.34 -3 7 C-3 6.34 -3 5.68 -3 5 C-4.65 5 -6.3 5 -8 5 C-8.33 8.3 -8.66 11.6 -9 15 C-11.74674041 12.25325959 -11.7596445 9.97661824 -12.08203125 6.19921875 C-12 4 -12 4 -10.5625 1.4375 C-6.87171703 -0.63293923 -4.19713771 -0.27980918 0 0 Z " fill="#167C1C" transform="translate(208,16)"/>
<path d="M0 0 C3.3 0 6.6 0 10 0 C9.34 3.63 8.68 7.26 8 11 C7.67 11 7.34 11 7 11 C6.67 8.03 6.34 5.06 6 2 C5.34 2 4.68 2 4 2 C4 9.26 4 16.52 4 24 C4.99 24.33 5.98 24.66 7 25 C7 21.7 7 18.4 7 15 C7.33 15 7.66 15 8 15 C8 17.97 8 20.94 8 24 C8.66 24 9.32 24 10 24 C10 24.66 10 25.32 10 26 C6.7 26 3.4 26 0 26 C0 25.34 0 24.68 0 24 C0.66 24 1.32 24 2 24 C2 16.74 2 9.48 2 2 C1.34 2 0.68 2 0 2 C0 1.34 0 0.68 0 0 Z " fill="#14418E" transform="translate(82,17)"/>
<path d="M0 0 C0.99 0 1.98 0 3 0 C3.74464946 6.87368733 4.18225237 13.16920852 3 20 C2.01 20 1.02 20 0 20 C-0.07347656 19.04287109 -0.07347656 19.04287109 -0.1484375 18.06640625 C-0.22320312 17.24011719 -0.29796875 16.41382812 -0.375 15.5625 C-0.44460938 14.73878906 -0.51421875 13.91507813 -0.5859375 13.06640625 C-0.79089844 12.04353516 -0.79089844 12.04353516 -1 11 C-1.66 10.67 -2.32 10.34 -3 10 C-2.34 10 -1.68 10 -1 10 C-1 8.68 -1 7.36 -1 6 C-0.34 6 0.32 6 1 6 C0.67 4.02 0.34 2.04 0 0 Z " fill="#0A8C0D" transform="translate(266,20)"/>
<path d="M0 0 C-0.8125 3.4375 -0.8125 3.4375 -2 7 C-4.92669691 7.97556564 -6.44061321 8.0606341 -9.44921875 7.87890625 C-10.29677734 7.83056641 -11.14433594 7.78222656 -12.01757812 7.73242188 C-12.89865234 7.67634766 -13.77972656 7.62027344 -14.6875 7.5625 C-15.58017578 7.51029297 -16.47285156 7.45808594 -17.39257812 7.40429688 C-19.5954156 7.2747182 -21.79778873 7.13975754 -24 7 C-24 6.34 -24 5.68 -24 5 C-23.01 5 -22.02 5 -21 5 C-20.67 4.01 -20.34 3.02 -20 2 C-20 3.32 -20 4.64 -20 6 C-18.35 6 -16.7 6 -15 6 C-14.67 5.34 -14.34 4.68 -14 4 C-12.6696875 4.12375 -12.6696875 4.12375 -11.3125 4.25 C-6.37382582 3.87726987 -4.79531151 0 0 0 Z " fill="#0E3B76" transform="translate(183,36)"/>
<path d="M0 0 C0.66 0 1.32 0 2 0 C2 7.59 2 15.18 2 23 C1.01 23 0.02 23 -1 23 C-1.02887512 19.35418313 -1.04675585 15.70839537 -1.0625 12.0625 C-1.07087891 11.02158203 -1.07925781 9.98066406 -1.08789062 8.90820312 C-1.09272461 7.42416992 -1.09272461 7.42416992 -1.09765625 5.91015625 C-1.10289307 4.99371338 -1.10812988 4.07727051 -1.11352539 3.13305664 C-1 1 -1 1 0 0 Z " fill="#1957CE" transform="translate(86,18)"/>
<path d="M0 0 C2.25 0.25 2.25 0.25 4 1 C3.39816251 3.02045442 2.72693904 5.02111039 2 7 C-0.24512262 8.12256131 -1.51456649 8.13413762 -4 8.125 C-5.051875 8.12886719 -5.051875 8.12886719 -6.125 8.1328125 C-8 8 -8 8 -10 7 C-10 6.01 -10 5.02 -10 4 C-9.0925 4.0825 -8.185 4.165 -7.25 4.25 C-3.26264177 3.94328014 -2.67972566 2.76904985 0 0 Z " fill="#317934" transform="translate(230,36)"/>
<path d="M0 0 C0.33 0 0.66 0 1 0 C0.98952637 0.9286084 0.97905273 1.8572168 0.96826172 2.81396484 C0.93420796 6.2542569 0.90911507 9.69437027 0.89013672 13.13476562 C0.88006957 14.6247032 0.86641482 16.11462097 0.84912109 17.60449219 C0.82490347 19.74419028 0.81352436 21.88362753 0.8046875 24.0234375 C0.79421387 25.31169434 0.78374023 26.59995117 0.77294922 27.92724609 C0.67162336 31.10700806 0.67162336 31.10700806 3 33 C-0.3 32.67 -3.6 32.34 -7 32 C-7 31.01 -7 30.02 -7 29 C-4.69 29 -2.38 29 0 29 C0 19.43 0 9.86 0 0 Z " fill="#1949A2" transform="translate(72,18)"/>
<path d="M0 0 C2.19050021 0.09017996 4.378466 0.24666208 6.5625 0.4375 C7.76003906 0.53933594 8.95757812 0.64117188 10.19140625 0.74609375 C11.11824219 0.82988281 12.04507813 0.91367187 13 1 C11.68 1.33 10.36 1.66 9 2 C9 2.66 9 3.32 9 4 C6.69 4.33 4.38 4.66 2 5 C1.67 5.99 1.34 6.98 1 8 C0.01 8 -0.98 8 -2 8 C-1.125 1.125 -1.125 1.125 0 0 Z " fill="#2A7D35" transform="translate(184,16)"/>
<path d="M0 0 C2 2 2 2 2.1953125 5.2578125 C2.16050781 7.17207031 2.16050781 7.17207031 2.125 9.125 C2.10695313 10.40632813 2.08890625 11.68765625 2.0703125 13.0078125 C2.04710937 13.99523438 2.02390625 14.98265625 2 16 C1.67 16 1.34 16 1 16 C0.67 13.03 0.34 10.06 0 7 C-0.12117187 7.85464844 -0.24234375 8.70929687 -0.3671875 9.58984375 C-0.53476563 10.69457031 -0.70234375 11.79929687 -0.875 12.9375 C-1.11863281 14.59072266 -1.11863281 14.59072266 -1.3671875 16.27734375 C-1.68042969 17.62505859 -1.68042969 17.62505859 -2 19 C-2.66 19.33 -3.32 19.66 -4 20 C-3.91308261 17.22763506 -3.80622639 14.45852922 -3.6875 11.6875 C-3.66494141 10.90181641 -3.64238281 10.11613281 -3.61914062 9.30664062 C-3.58369141 8.54931641 -3.54824219 7.79199219 -3.51171875 7.01171875 C-3.48553467 6.31522217 -3.45935059 5.61872559 -3.43237305 4.90112305 C-2.88776232 2.50649641 -1.84170838 1.56727453 0 0 Z " fill="#11460F" transform="translate(15,16)"/>
<path d="M0 0 C0.33 0 0.66 0 1 0 C1.33 8.91 1.66 17.82 2 27 C2.66 26.67 3.32 26.34 4 26 C4.37400786 23.67284 4.70764733 21.33882138 5 19 C6 18 6 18 8.5625 17.9375 C9.7690625 17.9684375 9.7690625 17.9684375 11 18 C10.67 18.66 10.34 19.32 10 20 C9.01 20.33 8.02 20.66 7 21 C6.67 23.31 6.34 25.62 6 28 C4.34385343 28.38218767 2.67542976 28.71395102 1 29 C0 28 0 28 -0.11352539 25.31616211 C-0.10828857 24.14835205 -0.10305176 22.98054199 -0.09765625 21.77734375 C-0.09443359 20.51728516 -0.09121094 19.25722656 -0.08789062 17.95898438 C-0.07953403 16.61848891 -0.07106907 15.27799412 -0.0625 13.9375 C-0.0574866 12.59310058 -0.05292342 11.2486994 -0.04882812 9.90429688 C-0.03699488 6.60282059 -0.02050971 3.30143197 0 0 Z " fill="#184795" transform="translate(23,16)"/>
<path d="M0 0 C3.31248187 -0.02888146 6.62493167 -0.04675799 9.9375 -0.0625 C10.88302734 -0.07087891 11.82855469 -0.07925781 12.80273438 -0.08789062 C14.15141602 -0.09272461 14.15141602 -0.09272461 15.52734375 -0.09765625 C16.77632446 -0.10551147 16.77632446 -0.10551147 18.05053711 -0.11352539 C20 0 20 0 21 1 C21.04063832 2.66617115 21.042721 4.33388095 21 6 C20.01 5.67 19.02 5.34 18 5 C18.66 5 19.32 5 20 5 C19.67 4.34 19.34 3.68 19 3 C16.29400158 2.52402634 13.66404596 2.15906371 10.9375 1.875 C10.17888672 1.78863281 9.42027344 1.70226562 8.63867188 1.61328125 C6.76003014 1.40060483 4.88011364 1.19924541 3 1 C3.66 2.65 4.32 4.3 5 6 C3.35 5.67 1.7 5.34 0 5 C0 3.35 0 1.7 0 0 Z " fill="#1E673C" transform="translate(44,19)"/>
<path d="M0 0 C1.45823212 -0.0270043 2.91660675 -0.04639787 4.375 -0.0625 C5.18710937 -0.07410156 5.99921875 -0.08570313 6.8359375 -0.09765625 C9 0 9 0 11 1 C11 1.99 11 2.98 11 4 C10.34 4 9.68 4 9 4 C9 9.28 9 14.56 9 20 C8.67 20 8.34 20 8 20 C7.34 14.39 6.68 8.78 6 3 C5.01 2.67 4.02 2.34 3 2 C2.67 2.99 2.34 3.98 2 5 C1.34 4.67 0.68 4.34 0 4 C0 2.68 0 1.36 0 0 Z " fill="#1F7423" transform="translate(278,16)"/>
<path d="M0 0 C0.66 0 1.32 0 2 0 C3.26582219 3.86723631 3.1118765 7.73151262 3.0625 11.75 C3.05798828 12.44738281 3.05347656 13.14476562 3.04882812 13.86328125 C3.0371002 15.57555803 3.01916653 17.28779033 3 19 C2.01 19 1.02 19 0 19 C0 12.73 0 6.46 0 0 Z " fill="#177323" transform="translate(51,26)"/>
<path d="M0 0 C2.64 0 5.28 0 8 0 C7 3 7 3 4.6875 4.3125 C1.4127369 6.36874659 0.02158748 8.75102012 -2 12 C-2.33 12 -2.66 12 -3 12 C-2.25 5.25 -2.25 5.25 0 3 C0 2.01 0 1.02 0 0 Z " fill="#1D4289" transform="translate(97,17)"/>
<path d="M0 0 C0.33 0.66 0.66 1.32 1 2 C5.78478822 2.09764874 10.27685687 1.77112541 15 1 C13.24467509 3.3658727 11.79043891 4.78911798 8.90625 5.55859375 C4.41343814 6.16512335 1.09540098 6.24586505 -3 4 C-2.01 3.67 -1.02 3.34 0 3 C0 2.01 0 1.02 0 0 Z " fill="#0B2B81" transform="translate(115,38)"/>
<path d="M0 0 C0.33 0.66 0.66 1.32 1 2 C0.67 2.99 0.34 3.98 0 5 C0.05758687 7.19256678 0.05758687 7.19256678 0.375 9.5 C0.46523437 10.2734375 0.55546875 11.046875 0.6484375 11.84375 C0.96966661 14.17474276 0.96966661 14.17474276 2 17 C-0.37031549 16.0518738 -1.76672508 15.31103322 -3.3125 13.25 C-4.26343163 10.13786012 -3.83065145 8.13091702 -3 5 C-1.4375 2.125 -1.4375 2.125 0 0 Z " fill="#1759CC" transform="translate(111,22)"/>
<path d="M0 0 C0.33 0 0.66 0 1 0 C3.11161731 11.52164009 3.11161731 11.52164009 4 17 C1.125 16.75 1.125 16.75 -2 16 C-3.4375 14.125 -3.4375 14.125 -4 12 C-3.67 11.01 -3.34 10.02 -3 9 C-2.54625 9.804375 -2.0925 10.60875 -1.625 11.4375 C-0.25274335 14.08856572 -0.25274335 14.08856572 2 15 C1.34 14.01 0.68 13.02 0 12 C-0.44921875 9.58984375 -0.44921875 9.58984375 -0.6875 6.9375 C-0.77386719 6.05964844 -0.86023438 5.18179687 -0.94921875 4.27734375 C-1 2 -1 2 0 0 Z " fill="#0A41AC" transform="translate(111,24)"/>
<path d="M0 0 C2.47407292 0.32987639 3.6637767 0.57972087 5.25 2.5625 C6.58982423 6.91692875 6.69951104 11.25122241 5 15.5 C4.505 16.2425 4.505 16.2425 4 17 C3.34 16.67 2.68 16.34 2 16 C2.33 11.71 2.66 7.42 3 3 C2.34 2.67 1.68 2.34 1 2 C0.67 1.34 0.34 0.68 0 0 Z " fill="#1755CC" transform="translate(126,21)"/>
<path d="M0 0 C3 1 3 1 4 3 C4.07033769 4.87379605 4.0843022 6.75001102 4.0625 8.625 C4.05347656 9.62789062 4.04445312 10.63078125 4.03515625 11.6640625 C4.02355469 12.43492188 4.01195312 13.20578125 4 14 C4.94875 13.814375 5.8975 13.62875 6.875 13.4375 C10 13 10 13 12 14 C12 14.66 12 15.32 12 16 C8.04 16 4.08 16 0 16 C0 15.34 0 14.68 0 14 C0.66 13.67 1.32 13.34 2 13 C2.05447047 11.58376784 2.09300508 10.16691809 2.125 8.75 C2.14820313 7.96109375 2.17140625 7.1721875 2.1953125 6.359375 C1.9828378 3.79268059 1.28654105 2.2083933 0 0 Z " fill="#08368D" transform="translate(140,27)"/>
<path d="M0 0 C4.77513228 4.52380952 4.77513228 4.52380952 6.0625 7.25 C6.8653367 9.22094022 6.8653367 9.22094022 9.125 9.75 C9.74375 9.8325 10.3625 9.915 11 10 C11 10.66 11 11.32 11 12 C7.37 12 3.74 12 0 12 C0.33 11.01 0.66 10.02 1 9 C2.32 9 3.64 9 5 9 C4.6390625 8.51789062 4.278125 8.03578125 3.90625 7.5390625 C3.4421875 6.90742187 2.978125 6.27578125 2.5 5.625 C2.0359375 4.99851562 1.571875 4.37203125 1.09375 3.7265625 C0 2 0 2 0 0 Z " fill="#0C449E" transform="translate(96,31)"/>
<path d="M0 0 C0.99 0 1.98 0 3 0 C3 2.97 3 5.94 3 9 C1.68 8.34 0.36 7.68 -1 7 C-2.3242287 6.63215869 -3.65613912 6.28797019 -5 6 C-5 5.01 -5 4.02 -5 3 C-4.360625 2.87625 -3.72125 2.7525 -3.0625 2.625 C-2.0415625 2.315625 -2.0415625 2.315625 -1 2 C-0.67 1.34 -0.34 0.68 0 0 Z " fill="#154F9E" transform="translate(173,25)"/>
<path d="M0 0 C2 2 2 2 2.1953125 3.9453125 C2.13020833 5.96354167 2.06510417 7.98177083 2 10 C0.68 9.67 -0.64 9.34 -2 9 C-2.12375 8.360625 -2.2475 7.72125 -2.375 7.0625 C-2.684375 6.0415625 -2.684375 6.0415625 -3 5 C-3.66 4.67 -4.32 4.34 -5 4 C-3.35 2.68 -1.7 1.36 0 0 Z " fill="#217C21" transform="translate(225,24)"/>
<path d="M0 0 C1.22589844 0.15275391 1.22589844 0.15275391 2.4765625 0.30859375 C3.41628906 0.43427734 3.41628906 0.43427734 4.375 0.5625 C4.375 1.2225 4.375 1.8825 4.375 2.5625 C5.035 2.5625 5.695 2.5625 6.375 2.5625 C5.715 3.8825 5.055 5.2025 4.375 6.5625 C4.375 5.5725 4.375 4.5825 4.375 3.5625 C1.075 3.8925 -2.225 4.2225 -5.625 4.5625 C-5.955 3.2425 -6.285 1.9225 -6.625 0.5625 C-4.10446405 -0.69776798 -2.7707902 -0.35624445 0 0 Z " fill="#338235" transform="translate(275.625,27.4375)"/>
<path d="M0 0 C3.21880117 3.7935871 5.6163187 7.65829477 8 12 C5.33333333 10.66666667 2.66666667 9.33333333 0 8 C0 6.68 0 5.36 0 4 C-1.32 3.67 -2.64 3.34 -4 3 C-2.68 2.01 -1.36 1.02 0 0 Z " fill="#1657C3" transform="translate(34,30)"/>
<path d="M0 0 C0.99 0.66 1.98 1.32 3 2 C2.47599609 2.69222656 2.47599609 2.69222656 1.94140625 3.3984375 C-1.86921327 8.86068531 -2.85094606 13.38742532 -3 20 C-3.33 20 -3.66 20 -4 20 C-4.68912276 6.02612175 -4.68912276 6.02612175 -2 2.125 C-1.34 1.42375 -0.68 0.7225 0 0 Z " fill="#193A91" transform="translate(152,21)"/>
<path d="M0 0 C0.33 0 0.66 0 1 0 C1.33 3.96 1.66 7.92 2 12 C3.32 12.33 4.64 12.66 6 13 C6 13.66 6 14.32 6 15 C-0.75 15.125 -0.75 15.125 -3 14 C-3 13.01 -3 12.02 -3 11 C-2.34 10.67 -1.68 10.34 -1 10 C-1.01160156 9.36191406 -1.02320313 8.72382812 -1.03515625 8.06640625 C-1.04417969 7.24011719 -1.05320313 6.41382813 -1.0625 5.5625 C-1.07410156 4.73878906 -1.08570313 3.91507813 -1.09765625 3.06640625 C-1 1 -1 1 0 0 Z " fill="#146311" transform="translate(213,29)"/>
<path d="M0 0 C1.32 0.66 2.64 1.32 4 2 C3.67 2.99 3.34 3.98 3 5 C1.37509046 5.02698189 -0.24994633 5.04638757 -1.875 5.0625 C-3.23238281 5.07990234 -3.23238281 5.07990234 -4.6171875 5.09765625 C-7 5 -7 5 -9 4 C-8.67 3.01 -8.34 2.02 -8 1 C-5.36 1.66 -2.72 2.32 0 3 C0 2.01 0 1.02 0 0 Z " fill="#185E1D" transform="translate(198,39)"/>
<path d="M0 0 C1 3.875 1 3.875 1 5 C2.11375 4.649375 3.2275 4.29875 4.375 3.9375 C8 3 8 3 10 4 C10 4.66 10 5.32 10 6 C7.47524538 7.26237731 5.68799534 7.09856404 2.875 7.0625 C1.96492188 7.05347656 1.05484375 7.04445313 0.1171875 7.03515625 C-0.58148438 7.02355469 -1.28015625 7.01195312 -2 7 C-2 5.68 -2 4.36 -2 3 C-1.34 3 -0.68 3 0 3 C0 2.01 0 1.02 0 0 Z " fill="#196A23" transform="translate(280,37)"/>
<path d="M0 0 C0.33 1.32 0.66 2.64 1 4 C0.01 4.33 -0.98 4.66 -2 5 C-2.33 8.3 -2.66 11.6 -3 15 C-5.74743623 12.25256377 -5.74702894 9.97194958 -6.10546875 6.19921875 C-6 4 -6 4 -4.1875 1.4375 C-2 0 -2 0 0 0 Z " fill="#2D832E" transform="translate(202,16)"/>
<path d="M0 0 C0.33 0 0.66 0 1 0 C1 5.61 1 11.22 1 17 C0.01 17 -0.98 17 -2 17 C-1.85978195 14.35375716 -1.71310224 11.70815422 -1.5625 9.0625 C-1.52318359 8.30775391 -1.48386719 7.55300781 -1.44335938 6.77539062 C-1.11328125 1.11328125 -1.11328125 1.11328125 0 0 Z " fill="#1056D0" transform="translate(165,23)"/>
<path d="M0 0 C1.51400391 0.01740234 1.51400391 0.01740234 3.05859375 0.03515625 C4.07050781 0.04417969 5.08242187 0.05320312 6.125 0.0625 C7.29869141 0.07990234 7.29869141 0.07990234 8.49609375 0.09765625 C8.16609375 2.07765625 7.83609375 4.05765625 7.49609375 6.09765625 C6.83609375 6.09765625 6.17609375 6.09765625 5.49609375 6.09765625 C5.49609375 4.44765625 5.49609375 2.79765625 5.49609375 1.09765625 C4.17609375 1.09765625 2.85609375 1.09765625 1.49609375 1.09765625 C2.15609375 2.74765625 2.81609375 4.39765625 3.49609375 6.09765625 C2.50609375 6.59265625 2.50609375 6.59265625 1.49609375 7.09765625 C-0.15390625 5.11765625 -1.80390625 3.13765625 -3.50390625 1.09765625 C-2.50390625 0.09765625 -2.50390625 0.09765625 0 0 Z " fill="#15398E" transform="translate(136.50390625,16.90234375)"/>
<path d="M0 0 C1.65 0 3.3 0 5 0 C5.33 0.66 5.66 1.32 6 2 C5.01 2.495 5.01 2.495 4 3 C4 4.65 4 6.3 4 8 C3.34 8 2.68 8 2 8 C2 9.32 2 10.64 2 12 C1.34 12 0.68 12 0 12 C0 8.04 0 4.08 0 0 Z " fill="#1A8F1F" transform="translate(263,18)"/>
<path d="M0 0 C0.66 0.33 1.32 0.66 2 1 C1.67 3.31 1.34 5.62 1 8 C1.66 8 2.32 8 3 8 C3 9.32 3 10.64 3 12 C-2.75 12.125 -2.75 12.125 -5 11 C-5 10.34 -5 9.68 -5 9 C-3.35 9 -1.7 9 0 9 C0 6.03 0 3.06 0 0 Z " fill="#1C7519" transform="translate(269,32)"/>
<path d="M0 0 C0.33 0 0.66 0 1 0 C1.68292434 8.35362804 2.13350869 16.61862109 2 25 C2 25.99 2 26.98 2 28 C1.34 27.67 0.68 27.34 0 27 C0 18.09 0 9.18 0 0 Z " fill="#1F59BD" transform="translate(24,16)"/>
<path d="M0 0 C3.3 0 6.6 0 10 0 C10.33 2.31 10.66 4.62 11 7 C8.525 6.01 8.525 6.01 6 5 C6 3.68 6 2.36 6 1 C4.02 1 2.04 1 0 1 C0 0.67 0 0.34 0 0 Z " fill="#1D4D87" transform="translate(170,17)"/>
<path d="M0 0 C0 1.32 0 2.64 0 4 C-1.98 4.99 -3.96 5.98 -6 7 C-6.33 5.68 -6.66 4.36 -7 3 C-3.375 0 -3.375 0 0 0 Z " fill="#2F772C" transform="translate(259,36)"/>
<path d="M0 0 C0.33 0 0.66 0 1 0 C1 2.97 1 5.94 1 9 C-0.65 9.33 -2.3 9.66 -4 10 C-3.67 8.35 -3.34 6.7 -3 5 C-2.34 5 -1.68 5 -1 5 C-0.67 3.35 -0.34 1.7 0 0 Z " fill="#13881B" transform="translate(56,40)"/>
<path d="M0 0 C0.99 0 1.98 0 3 0 C4.15941038 3.47823115 3.70820884 5.45895578 3 9 C0.52121318 6.8445332 -0.57563804 5.28880515 -1 2 C-0.67 1.34 -0.34 0.68 0 0 Z " fill="#22821D" transform="translate(255,17)"/>
<path d="M0 0 C0.99 0 1.98 0 3 0 C2.34 2.31 1.68 4.62 1 7 C-0.32 6.34 -1.64 5.68 -3 5 C-1.6875 2.5 -1.6875 2.5 0 0 Z " fill="#1D4F9B" transform="translate(180,36)"/>
<path d="M0 0 C0.99 0.495 0.99 0.495 2 1 C1.67 2.65 1.34 4.3 1 6 C1.66 6 2.32 6 3 6 C3 7.98 3 9.96 3 12 C2.01 11.67 1.02 11.34 0 11 C0 7.37 0 3.74 0 0 Z " fill="#1458CA" transform="translate(25,30)"/>
<path d="M0 0 C1.65 0 3.3 0 5 0 C5.66 1.65 6.32 3.3 7 5 C6.01 5.33 5.02 5.66 4 6 C3.34 5.67 2.68 5.34 2 5 C2 4.34 2 3.68 2 3 C1.34 3 0.68 3 0 3 C0 2.01 0 1.02 0 0 Z " fill="#1F7E1C" transform="translate(225,16)"/>
<path d="M0 0 C6.15234375 -0.09765625 6.15234375 -0.09765625 8 0 C9 1 9 1 9.0625 3.5625 C9.041875 4.366875 9.02125 5.17125 9 6 C8.01 5.67 7.02 5.34 6 5 C6.66 5 7.32 5 8 5 C7.67 4.34 7.34 3.68 7 3 C4.6859378 2.26924352 2.35171131 1.59861742 0 1 C0 0.67 0 0.34 0 0 Z " fill="#135528" transform="translate(56,19)"/>
<path d="M0 0 C4.455 0.99 4.455 0.99 9 2 C5.3558226 4.4294516 3.28758728 4.16179575 -1 4 C-0.67 2.68 -0.34 1.36 0 0 Z " fill="#1E7C20" transform="translate(211,16)"/>
<path d="M0 0 C2.97 0.33 5.94 0.66 9 1 C7.68 1.33 6.36 1.66 5 2 C5 2.66 5 3.32 5 4 C2.69 3.67 0.38 3.34 -2 3 C-1.34 2.67 -0.68 2.34 0 2 C0 1.34 0 0.68 0 0 Z " fill="#1F7620" transform="translate(188,16)"/>
<path d="M0 0 C0.33 0.66 0.66 1.32 1 2 C2.11375 1.649375 3.2275 1.29875 4.375 0.9375 C8 0 8 0 10 1 C10 1.66 10 2.32 10 3 C6.04 3 2.08 3 -2 3 C-2 2.34 -2 1.68 -2 1 C-1.34 0.67 -0.68 0.34 0 0 Z " fill="#05175E" transform="translate(142,40)"/>
<path d="M0 0 C1.65 0 3.3 0 5 0 C5.33 2.64 5.66 5.28 6 8 C4.68 7.67 3.36 7.34 2 7 C2.66 6.67 3.32 6.34 4 6 C3.72382467 4.05925139 3.72382467 4.05925139 3 2 C2.01 1.34 1.02 0.68 0 0 Z " fill="#35753B" transform="translate(203,16)"/>
<path d="M0 0 C-0.99 0.495 -0.99 0.495 -2 1 C-2.33 1.99 -2.66 2.98 -3 4 C-5.31 3.01 -7.62 2.02 -10 1 C-6.1496895 -1.56687367 -4.41430237 -0.83288724 0 0 Z " fill="#0F3A82" transform="translate(126,17)"/>
<path d="M0 0 C2.88437779 1.29299694 4.87219421 2.65941363 7 5 C7 4.34 7 3.68 7 3 C7.66 3 8.32 3 9 3 C9 3.99 9 4.98 9 6 C6.75 6.3125 6.75 6.3125 4 6 C0 1.78378378 0 1.78378378 0 0 Z " fill="#1D4B92" transform="translate(36,39)"/>
<path d="M0 0 C1.65 0 3.3 0 5 0 C5.33 0.99 5.66 1.98 6 3 C4.02 3.33 2.04 3.66 0 4 C0 2.68 0 1.36 0 0 Z " fill="#0E6C1D" transform="translate(58,21)"/>
<path d="M0 0 C-0.56371414 3.26954202 -1.49962266 4.82575883 -4 7 C-4 5.68 -4 4.36 -4 3 C-4.66 2.34 -5.32 1.68 -6 1 C-4 0 -4 0 0 0 Z " fill="#14498D" transform="translate(44,19)"/>
<path d="M0 0 C0.99 0 1.98 0 3 0 C3 2.97 3 5.94 3 9 C2.34 9 1.68 9 1 9 C1.04125 8.21625 1.0825 7.4325 1.125 6.625 C1.28728734 3.83883881 1.28728734 3.83883881 -1 2 C-0.67 1.34 -0.34 0.68 0 0 Z " fill="#264F80" transform="translate(173,25)"/>
<path d="M0 0 C0.33 0 0.66 0 1 0 C1 4.62 1 9.24 1 14 C0.67 14 0.34 14 0 14 C-0.06058594 13.38511719 -0.12117187 12.77023438 -0.18359375 12.13671875 C-0.26738281 11.32847656 -0.35117188 10.52023438 -0.4375 9.6875 C-0.51871094 8.88699219 -0.59992187 8.08648437 -0.68359375 7.26171875 C-0.95265693 4.83912821 -0.95265693 4.83912821 -2 2 C-1.34 2 -0.68 2 0 2 C0 1.34 0 0.68 0 0 Z " fill="#1C5617" transform="translate(16,18)"/>
<path d="M0 0 C0.66 0.33 1.32 0.66 2 1 C2 3.31 2 5.62 2 8 C1.01 8.33 0.02 8.66 -1 9 C-0.67 6.03 -0.34 3.06 0 0 Z " fill="#147215" transform="translate(14,22)"/>
<path d="M0 0 C0.99 0.495 0.99 0.495 2 1 C3.27536232 6.44927536 3.27536232 6.44927536 2 9 C1.34 9 0.68 9 0 9 C0 6.03 0 3.06 0 0 Z " fill="#1658CF" transform="translate(25,17)"/>
<path d="M0 0 C0.66 0.33 1.32 0.66 2 1 C3.37342831 1.0689472 4.75002102 1.08467708 6.125 1.0625 C7.40375 1.041875 8.6825 1.02125 10 1 C10 1.66 10 2.32 10 3 C6.37 3 2.74 3 -1 3 C-0.67 2.01 -0.34 1.02 0 0 Z " fill="#0D2F77" transform="translate(97,40)"/>
<path d="M0 0 C2.125 0.375 2.125 0.375 4 1 C2.35 2.65 0.7 4.3 -1 6 C-1.625 4.125 -1.625 4.125 -2 2 C-1.34 1.34 -0.68 0.68 0 0 Z " fill="#267028" transform="translate(230,36)"/>
<path d="M0 0 C2 2 2 2 2.125 5.125 C2.08375 6.07375 2.0425 7.0225 2 8 C1.34 8 0.68 8 0 8 C0 6.35 0 4.7 0 3 C-0.66 2.67 -1.32 2.34 -2 2 C-1.34 1.34 -0.68 0.68 0 0 Z " fill="#356E30" transform="translate(225,24)"/>
<path d="" fill="#000000" transform="translate(0,0)"/>
</svg>
